HIERARCHY
ROOT SimulationBone
{
	OFFSET 0.000000 0.000000 0.000000
	CHANNELS 6 Xposition Yposition Zposition Zrotation Yrotation Xrotation 
	JOINT Hips
	{
		OFFSET 0.000000 0.000000 0.000000
		CHANNELS 6 Xposition Yposition Zposition Zrotation Yrotation Xrotation 
		JOINT LeftUpLeg
		{
			OFFSET 0.103457 1.857822 10.548516
			CHANNELS 3 Zrotation Yrotation Xrotation
			JOINT LeftLeg
			{
				OFFSET 43.500008 -0.000031 0.000015
				CHANNELS 3 Zrotation Yrotation Xrotation
				JOINT LeftFoot
				{
					OFFSET 42.372192 0.000027 -0.000009
					CHANNELS 3 Zrotation Yrotation Xrotation
					JOINT LeftToe
					{
						OFFSET 17.299999 0.000000 -0.000004
						CHANNELS 3 Zrotation Yrotation Xrotation
						End Site
						{
							OFFSET 0.000000 0.000000 0.000000
						}
					}
				}
			}
		}
		JOINT RightUpLeg
		{
			OFFSET 0.103460 1.857822 -10.548513
			CHANNELS 3 Zrotation Yrotation Xrotation
			JOINT RightLeg
			{
				OFFSET 43.500038 -0.000015 -0.000002
				CHANNELS 3 Zrotation Yrotation Xrotation
				JOINT RightFoot
				{
					OFFSET 42.372269 -0.000019 0.000014
					CHANNELS 3 Zrotation Yrotation Xrotation
					JOINT RightToe
					{
						OFFSET 17.300005 -0.000001 0.000011
						CHANNELS 3 Zrotation Yrotation Xrotation
						End Site
						{
							OFFSET 0.000000 0.000000 0.000000
						}
					}
				}
			}
		}
		JOINT Spine
		{
			OFFSET 6.901966 -2.603743 -0.000003
			CHANNELS 3 Zrotation Yrotation Xrotation
			JOINT Spine1
			{
				OFFSET 12.588103 0.000012 0.000008
				CHANNELS 3 Zrotation Yrotation Xrotation
				JOINT Spine2
				{
					OFFSET 12.343199 0.000004 0.000007
					CHANNELS 3 Zrotation Yrotation Xrotation
					JOINT Neck
					{
						OFFSET 25.832901 -0.000008 -0.000001
						CHANNELS 3 Zrotation Yrotation Xrotation
						JOINT Head
						{
							OFFSET 11.766611 0.000029 -0.000004
							CHANNELS 3 Zrotation Yrotation Xrotation
							End Site
							{
								OFFSET 0.000000 0.000000 0.000000
							}
						}
					}
					JOINT LeftShoulder
					{
						OFFSET 19.745907 -1.480370 6.000077
						CHANNELS 3 Zrotation Yrotation Xrotation
						JOINT LeftArm
						{
							OFFSET 11.284128 -0.000004 -0.000015
							CHANNELS 3 Zrotation Yrotation Xrotation
							JOINT LeftForeArm
							{
								OFFSET 33.000065 0.000010 0.000016
								CHANNELS 3 Zrotation Yrotation Xrotation
								JOINT LeftHand
								{
									OFFSET 25.200001 0.000010 0.000006
									CHANNELS 3 Zrotation Yrotation Xrotation
									End Site
									{
										OFFSET 0.000000 0.000000 0.000000
									}
								}
							}
						}
					}
					JOINT RightShoulder
					{
						OFFSET 19.746094 -1.480385 -6.000086
						CHANNELS 3 Zrotation Yrotation Xrotation
						JOINT RightArm
						{
							OFFSET 11.284142 -0.000011 -0.000013
							CHANNELS 3 Zrotation Yrotation Xrotation
							JOINT RightForeArm
							{
								OFFSET 33.000092 0.000004 0.000015
								CHANNELS 3 Zrotation Yrotation Xrotation
								JOINT RightHand
								{
									OFFSET 25.199759 0.000141 0.000412
									CHANNELS 3 Zrotation Yrotation Xrotation
									End Site
									{
										OFFSET 0.000000 0.000000 0.000000
									}
								}
							}
						}
					}
				}
			}
		}
	}
}
MOTION
Frames: 11
Frame Time: 0.016667
153.319124 0.000000 541.884267 0.000000 62.821492 0.000000 0.649670 88.250298 -0.666238 96.217788 -0.896229 178.608425 167.007004 8.569505 -177.123280 -6.093944 -1.592838 0.141652 63.848730 0.397231 1.044713 21.454551 0.003089 0.000000 -166.387452 -5.618292 172.978789 -20.387920 0.916123 -9.620748 91.189213 4.391158 -13.517727 21.454560 -0.003107 -0.000017 9.052891 0.117527 0.665648 8.094047 0.188232 1.337856 7.776041 0.196435 1.336703 10.385328 8.546529 9.213320 -32.037763 -9.971923 15.663109 -155.449188 -81.692401 -26.438108 -13.927557 60.973732 31.696096 -35.900102 -17.929923 1.545542 -1.308076 -6.385835 9.963533 168.585214 73.102780 -10.329988 -2.186279 -54.207449 -43.351251 -37.116729 17.828160 -1.595628 5.943319 -5.193453 -20.242493 
154.157061 0.000000 540.994766 0.000000 61.478968 0.000000 0.360720 88.352157 -0.822796 96.033481 -1.615150 178.844263 167.154616 8.795442 -176.269279 -6.370339 -1.945159 -1.094274 63.445051 1.618806 1.811569 21.454554 0.003093 0.000001 -166.085598 -5.047591 172.776997 -20.545214 0.623670 -9.732906 90.904600 4.421002 -13.679621 21.454559 -0.003113 -0.000018 9.050315 -0.102920 0.583791 8.086531 -0.246350 1.158966 7.768507 -0.239221 1.160433 10.576102 8.677853 9.646304 -32.489892 -10.327509 16.365468 -155.825320 -81.613189 -26.058801 -13.862233 60.850006 32.205288 -35.335498 -17.712232 1.517811 -1.492902 -5.245311 11.190498 168.589314 73.044302 -10.327825 -1.842763 -54.262601 -44.307736 -38.929575 17.996844 -1.652809 5.087877 -5.509766 -21.459406 
154.983038 0.000000 540.124571 0.000000 60.178391 0.000000 0.102501 88.447563 -0.966273 95.811177 -2.376318 179.197617 167.095250 9.039801 -176.324967 -7.136331 -2.296680 -1.632465 63.905414 2.194988 2.284601 21.454555 0.003089 0.000002 -165.915800 -4.446496 172.741017 -20.929129 0.351606 -9.857531 90.641609 4.475516 -13.730472 21.454560 -0.003110 -0.000018 9.046455 -0.358088 0.508137 8.076967 -0.750749 0.990085 7.758905 -0.744620 0.994601 10.660162 9.023305 10.051609 -32.943432 -10.545588 16.992689 -156.449838 -81.724517 -25.423892 -13.971896 60.732196 32.526442 -34.707530 -17.531260 1.491925 -1.555088 -4.083928 12.198276 169.152994 72.966162 -9.752699 -1.780478 -54.347817 -45.363926 -40.480508 18.134099 -1.702852 4.536195 -4.819967 -21.967608 
155.797915 0.000000 539.272823 0.000000 58.921252 0.000000 -0.122066 88.548037 -1.091958 95.544141 -3.110807 179.624079 166.952634 9.273245 -176.998838 -8.119377 -2.583353 -1.686600 64.857301 2.340644 2.607529 21.454554 0.003083 0.000002 -165.874247 -3.869406 172.812938 -21.504114 0.117204 -9.992996 90.300789 4.539901 -13.702229 21.454560 -0.003105 -0.000018 9.035224 -0.619486 0.448458 8.053341 -1.268683 0.852806 7.735216 -1.263360 0.860456 10.673124 9.441709 10.405262 -33.355460 -10.658387 17.515944 -157.370256 -81.936124 -24.487634 -14.245584 60.611175 32.723740 -34.027311 -17.361258 1.465743 -1.502454 -2.993432 12.983875 169.836355 72.934566 -9.053070 -1.790451 -54.511582 -46.378517 -41.742619 18.221037 -1.743236 4.129913 -3.529630 -22.175101 
156.602553 0.000000 538.438660 0.000000 57.708771 0.000000 -0.309561 88.665100 -1.195223 95.230549 -3.749713 -179.921028 166.853721 9.465799 -177.997817 -9.043465 -2.738349 -1.475815 65.936603 2.277113 2.912584 21.454553 0.003079 0.000001 -165.958461 -3.369806 172.934994 -22.234764 -0.062213 -10.138657 89.782658 4.599256 -13.626904 21.454560 -0.003102 -0.000018 9.010379 -0.858628 0.414576 8.002946 -1.743881 0.768921 7.684738 -1.739053 0.779446 10.648207 9.791285 10.682762 -33.684156 -10.699111 17.907016 -158.624078 -82.156991 -23.214289 -14.672956 60.477450 32.860862 -33.306126 -17.176442 1.437641 -1.344832 -2.064311 13.543394 170.213805 73.020141 -8.663092 -1.661232 -54.798240 -47.212510 -42.688647 18.238714 -1.771133 3.713556 -2.056168 -22.483016 
157.397812 0.000000 537.621222 0.000000 56.541913 0.000000 -0.456201 88.808038 -1.273748 94.880669 -4.238241 -179.488467 166.904079 9.588111 -179.070076 -9.692833 -2.731818 -1.196553 66.861984 2.189404 3.295087 21.454552 0.003080 -0.000000 -166.154338 -2.979859 173.081176 -23.080131 -0.181319 -10.317496 89.017689 4.662124 -13.510227 21.454559 -0.003105 -0.000017 8.967947 -1.053827 0.415131 7.917341 -2.133573 0.757403 7.599045 -2.128819 0.770281 10.619254 9.959470 10.871845 -33.899531 -10.689125 18.148156 -160.116493 -82.309566 -21.701280 -15.232276 60.328908 32.976834 -32.572467 -16.962130 1.407752 -1.098257 -1.354979 13.914370 169.956508 73.269259 -8.918407 -1.231945 -55.223679 -47.766912 -43.321982 18.179120 -1.785469 3.200152 -0.777359 -23.129517 
158.184554 0.000000 536.819649 0.000000 55.421406 0.000000 -0.558479 88.977211 -1.334178 94.536720 -4.578243 -179.151382 167.111629 9.596689 179.865778 -10.106120 -2.657203 -0.938948 67.671061 2.117611 3.689715 21.454553 0.003084 -0.000001 -166.395662 -2.647402 173.350761 -23.976367 -0.284361 -10.642960 88.056799 4.831817 -13.254172 21.454558 -0.003109 -0.000017 8.913429 -1.210631 0.453921 7.806963 -2.449082 0.825434 7.488588 -2.443923 0.840218 10.628574 9.952276 11.008515 -34.015376 -10.600388 18.260958 -161.339078 -82.375289 -20.463044 -15.855260 60.192468 33.012397 -31.922770 -16.748261 1.380519 -0.799170 -0.800226 14.305288 169.127504 73.617510 -9.755710 -0.553748 -55.701587 -48.089823 -43.769169 18.078254 -1.791796 2.834680 0.117850 -23.695606 
158.963639 0.000000 536.033081 0.000000 54.347757 0.000000 -0.615145 89.166394 -1.383567 94.239782 -4.796276 -178.967103 167.457656 9.469117 178.892524 -10.377275 -2.619097 -0.781416 68.462977 2.084583 4.004375 21.454552 0.003087 -0.000001 -166.633662 -2.309959 173.813911 -24.899854 -0.413404 -11.202481 86.978139 5.202432 -12.758597 21.454557 -0.003107 -0.000017 8.853776 -1.341159 0.530247 7.685345 -2.714513 0.970652 7.366907 -2.708469 0.987043 10.703641 9.807937 11.131363 -34.042569 -10.415532 18.279424 -161.839186 -82.353903 -19.957157 -16.468732 60.088028 32.914879 -31.446676 -16.571072 1.359392 -0.476104 -0.326182 14.874003 167.890337 73.982475 -11.009167 0.250616 -56.132322 -48.272016 -44.140294 17.989302 -1.796807 2.866138 0.527965 -23.727304 
159.735927 0.000000 535.260657 0.000000 53.321274 0.000000 -0.631703 89.351967 -1.421446 93.997230 -4.952604 -178.906198 167.909149 9.283794 178.271776 -10.562315 -2.647138 -0.870740 69.264428 2.184228 4.205349 21.454553 0.003088 -0.000001 -166.947568 -1.950000 174.297521 -26.013789 -0.541949 -11.893245 85.844207 5.724212 -12.005796 21.454557 -0.003103 -0.000018 8.792137 -1.456654 0.630417 7.558895 -2.951307 1.164862 7.240407 -2.944078 1.182683 10.801760 9.575338 11.241567 -33.936252 -10.211870 18.247928 -161.841616 -82.239356 -19.955993 -17.023405 59.981852 32.760568 -31.140440 -16.446769 1.345070 -0.125313 0.058667 15.405720 166.410031 74.329086 -12.510393 1.000871 -56.459277 -48.446581 -44.355849 17.990855 -1.803275 3.154437 0.467866 -23.323708 
160.502278 0.000000 534.501517 0.000000 52.342084 0.000000 -0.615374 89.511342 -1.445648 93.804969 -5.101470 -178.917192 168.426622 9.116551 178.212035 -10.710025 -2.750669 -1.310019 70.085320 2.489834 4.290104 21.454554 0.003089 -0.000001 -167.431524 -1.559272 174.662850 -27.485453 -0.642613 -12.613662 84.691221 6.348809 -10.962386 21.454556 -0.003103 -0.000018 8.730379 -1.566209 0.738065 7.431667 -3.176495 1.374707 7.113134 -3.167997 1.393881 10.886270 9.312167 11.339810 -33.673479 -10.074394 18.217677 -161.671587 -82.034894 -20.130438 -17.489446 59.840858 32.635121 -30.974403 -16.378317 1.337322 0.237711 0.308928 15.654737 164.844497 74.631244 -14.098685 1.540479 -56.643515 -48.684030 -44.333338 18.127409 -1.811723 3.500364 0.012210 -22.718071 
161.263555 0.000000 533.754801 0.000000 51.410159 0.000000 -0.574303 89.643463 -1.456482 93.655806 -5.242505 -178.950035 168.974645 8.952098 178.528892 -10.880713 -2.932188 -1.957852 70.939915 2.919614 4.312893 21.454555 0.003089 -0.000001 -168.101911 -1.118501 175.155475 -29.306046 -0.755299 -13.453962 83.470163 7.184007 -9.464289 21.454555 -0.003105 -0.000017 8.668931 -1.671096 0.839088 7.304905 -3.391711 1.571880 6.986330 -3.382023 1.592348 11.013852 9.099753 11.460601 -33.375257 -10.024976 18.255648 -161.329557 -81.795571 -20.479595 -17.894227 59.684295 32.528635 -30.908033 -16.335941 1.333266 0.504190 0.303674 15.624355 163.274196 74.840762 -15.694105 1.869749 -56.678851 -48.770615 -44.167588 18.281544 -1.816848 3.896286 -0.629715 -22.104174 
